<?xml version="1.0" standalone="no"?><!DOCTYPE svg PUBLIC "-//W3C//DTD SVG 1.1//EN" "http://www.w3.org/Graphics/SVG/1.1/DTD/svg11.dtd"><svg t="1596070664648" class="icon" viewBox="0 0 1027 1024" version="1.1" xmlns="http://www.w3.org/2000/svg" p-id="1369" xmlns:xlink="http://www.w3.org/1999/xlink" width="200.5859375" height="200"><defs><style type="text/css"></style></defs><path d="M989.691281 1.763571a6.820247 6.820247 0 0 0-5.801775 2.317901l-120.994409 173.491344a39.404309 39.404309 0 0 1-32.20477 17.117345H559.980614a39.032041 39.032041 0 0 1-31.04582-15.670413L391.967943 0.871531a3.511971 3.511971 0 0 0-2.3179-0.870969 5.794751 5.794751 0 0 0-2.612906 0.582987l-26.417043 951.413891a40.380637 40.380637 0 0 1-39.748482 39.748482h-0.287982a322.911643 322.911643 0 0 1-129.697072-28.727919c-0.287982 0-0.582987-0.287982-0.870968-0.287981a132.26081 132.26081 0 0 1-79.791971-121.282391c-1.453956-41.49042 11.603551-83.584899 22.048151-117.222553 2.317901-7.831694 4.642825-15.087425 6.384762-21.472188a577.740225 577.740225 0 0 0 23.502107-175.542335c-2.029919-84.13979-59.478733-156.100066-143.04256-179.602173a19.716203 19.716203 0 0 0-5.513793-0.870969c-8.997669 0-12.769525 11.603551-13.345488 16.246376-1.741937 12.769525 5.801775 14.799444 9.833517 15.958394 46.421227 13.057506 80.367934 38.589532 100.681171 76.308096 43.232357 79.791971 12.186538 187.145886-10.4446 265.504972-1.741937 6.089757-3.511971 11.898556-5.225812 17.700332-18.859282 66.72744-19.147263 111.680663-1.453956 166.544667 29.303882 90.236571 140.724659 114.026659 229.219293 118.381503a36.208416 36.208416 0 0 1 6.089757 0.582987h660.376892a36.320799 36.320799 0 0 0 26.985982-11.898556 39.291926 39.291926 0 0 0 10.732582-27.561945L997.234994 6.694378c-0.287982-4.642825-7.255731-4.916759-7.543713-4.916759z m-437.25438 518.50733a113.738678 113.738678 0 1 1 113.72463-113.752725 113.9213 113.9213 0 0 1-113.72463 113.752725z m299.725614 0a113.738678 113.738678 0 1 1 113.738678-113.738678 113.9213 113.9213 0 0 1-113.738678 113.738678z m0 0" p-id="1370" fill="#1BB394"></path><path d="M552.429877 363.285818a43.232357 43.232357 0 1 0 43.232358 43.232358 43.337716 43.337716 0 0 0-43.232358-43.232358z m0 0h299.725614a43.232357 43.232357 0 1 0 43.232357 43.232358 43.337716 43.337716 0 0 0-43.232357-43.232358z m0 0" p-id="1371" fill="#1BB394"></path></svg>