<?xml version="1.0" standalone="no"?><!DOCTYPE svg PUBLIC "-//W3C//DTD SVG 1.1//EN" "http://www.w3.org/Graphics/SVG/1.1/DTD/svg11.dtd"><svg t="1595574980317" class="icon" viewBox="0 0 1024 1024" version="1.1" xmlns="http://www.w3.org/2000/svg" p-id="1237" width="200" height="200" xmlns:xlink="http://www.w3.org/1999/xlink"><defs><style type="text/css"></style></defs><path d="M335.676404 350.346067a220.044944 220.044944 0 0 1 368.179776 65.006742l3.739326 9.492135 9.779775 2.588764a146.408989 146.408989 0 0 1 69.608989 40.557303l7.478651 7.766292 10.642697-1.725842a97.222472 97.222472 0 0 1 103.262921 49.474157 20.134831 20.134831 0 0 0 17.833708 10.642697 18.98427 18.98427 0 0 0 9.492135-2.588764 20.134831 20.134831 0 0 0 8.341573-27.325843A138.067416 138.067416 0 0 0 808.557303 431.460674a187.253933 187.253933 0 0 0-71.047191-41.707865 260.602247 260.602247 0 0 0-431.460674-67.883146 20.422472 20.422472 0 0 0 1.725843 28.764045 20.134831 20.134831 0 0 0 27.901123-0.287641zM590.525843 697.240449a220.620225 220.620225 0 0 1-208.826967-14.669662l-12.368539-7.766293-11.505618 9.204495a143.820225 143.820225 0 1 1-91.757303-256.862922h10.642696a150.723596 150.723596 0 0 1 28.764045 5.177529 77.08764 77.08764 0 0 1 15.820225 140.368539 47.173034 47.173034 0 0 1-71.622472-40.557304 20.134831 20.134831 0 0 0-19.55955-20.134831 20.134831 20.134831 0 0 0-20.134832 20.134831 88.017978 88.017978 0 0 0 88.017978 88.017978 90.031461 90.031461 0 0 0 41.420224-10.355056h1.438203a117.932584 117.932584 0 0 0 59.829213-102.4A116.782022 116.782022 0 0 0 316.404494 394.355056a182.939326 182.939326 0 0 0-37.393258-7.191011h-12.94382a185.52809 185.52809 0 1 0 106.139326 337.402247 258.876404 258.876404 0 0 0 127.424719 33.366292 254.849438 254.849438 0 0 0 73.635955-10.067415 241.042697 241.042697 0 0 0 33.941573-12.65618 20.134831 20.134831 0 0 0-16.683146-36.817978zM676.817978 563.48764a20.134831 20.134831 0 0 0-20.134832 20.134832 20.134831 20.134831 0 0 0 20.134832 20.422472h258.876404a20.422472 20.422472 0 0 0 20.422472-20.422472 20.134831 20.134831 0 0 0-20.422472-20.134832zM938.283146 640.28764h-263.478652a20.134831 20.134831 0 0 0-20.422472 20.134832 20.422472 20.422472 0 0 0 20.422472 20.422472h263.478652a20.422472 20.422472 0 0 0 20.134832-20.422472 20.134831 20.134831 0 0 0-20.134832-20.134832zM940.296629 716.8h-267.793258a20.134831 20.134831 0 0 0-20.134832 20.422472 20.134831 20.134831 0 0 0 20.134832 20.134831h267.793258a20.134831 20.134831 0 0 0 20.134832-20.134831 20.134831 20.134831 0 0 0-20.134832-20.422472z" p-id="1238" fill="#409EFF"></path></svg>