<?xml version="1.0" standalone="no"?><!DOCTYPE svg PUBLIC "-//W3C//DTD SVG 1.1//EN" "http://www.w3.org/Graphics/SVG/1.1/DTD/svg11.dtd"><svg t="1595039309875" class="icon" viewBox="0 0 1024 1024" version="1.1" xmlns="http://www.w3.org/2000/svg" p-id="1166" xmlns:xlink="http://www.w3.org/1999/xlink" width="200" height="200"><defs><style type="text/css"></style></defs><path d="M821.213483 425.707865h-13.806741a187.541573 187.541573 0 0 0-70.759551-41.420225A258.876404 258.876404 0 0 0 306.624719 316.404494l-14.669663 17.546068a271.820225 271.820225 0 0 0-21.860674 34.804494l-4.889888 9.779775a184.665169 184.665169 0 1 0 119.658427 327.622472 20.134831 20.134831 0 0 0-25.6-31.352809 143.820225 143.820225 0 1 1-91.469663-255.712359h23.298877l5.752809-13.806742c2.588764-6.32809 5.752809-12.65618 8.916854-18.984269a205.662921 205.662921 0 0 1 18.408989-28.764045l13.23146-16.107866a219.182022 219.182022 0 0 1 366.166292 65.006742l3.739326 9.492135 10.067416 2.588764a143.820225 143.820225 0 0 1 69.033708 40.557303l7.478651 7.766292 10.642697-2.013483a86.292135 86.292135 0 0 1 17.258427-1.438202 96.934831 96.934831 0 1 1 0 193.869663 115.05618 115.05618 0 0 1-17.258427-1.438202l-10.642697-2.013483-7.478651 7.766292a145.833708 145.833708 0 0 1-105.851686 45.15955 148.710112 148.710112 0 0 1-72.197752-16.395505 20.134831 20.134831 0 1 0-19.847191 35.092134 187.253933 187.253933 0 0 0 218.894382-26.17528 111.316854 111.316854 0 0 0 13.806741 0 137.492135 137.492135 0 0 0 0-274.98427z" p-id="1167" fill="#ffffff"></path><path d="M575.280899 552.557303l-71.334832-71.334831a20.422472 20.422472 0 0 0-28.764045 0L402.696629 552.557303a20.134831 20.134831 0 0 0 14.094382 34.516854 21.285393 21.285393 0 0 0 14.382023-5.752809l36.817977-37.105618v181.501124a20.134831 20.134831 0 0 0 40.269663 0v-181.501124L546.516854 581.321348a20.422472 20.422472 0 0 0 28.764045 0 20.710112 20.710112 0 0 0 0-28.764045z" p-id="1168" fill="#ffffff"></path></svg>